<?xml version="1.0" encoding="UTF-8"?>
<svg xmlns="http://www.w3.org/2000/svg" viewBox="0 0 327 498" width="327" height="498">
  <rect width="327" height="498" fill="none"/>
  <g fill="#231f20">
    <path d="M334.69,347.51l97.86,51.32,13.6,7.13c4.39,2.3,7.01,6.64,7.01,11.59,0,4.96-2.62,9.29-7.01,11.59l-12.19,6.39-39.36-20.63-59.91-31.42v-35.97m-15.39,0v35.97l-59.91,31.42-39.37,20.63-12.19-6.39c-4.39-2.3-7.01-6.63-7.01-11.59,0-4.96,2.62-9.29,7.01-11.59l13.61-7.13,97.86-51.32m15.39,53.63l82.42,43.24-34.3,17.98-48.13-25.24v-35.97m-15.39,0v35.97l-48.13,25.24-34.3-17.98,82.42-43.24m148.94,16.42l3.33,1.74c4.3,2.25,6.97,6.66,6.97,11.52v27.12c0,4.85-2.67,9.26-6.96,11.51l-136.88,71.77v-35.97l119.38-62.61c7.34-3.98,12.52-11.26,13.85-19.48,.23-1.45,.35-2.92,.35-4.36,0-.41,0-.82-.03-1.23m-282.49,0c-.02,.41-.03,.82-.03,1.23,0,1.45,.12,2.92,.35,4.37,1.32,8.22,6.5,15.5,13.86,19.49,.32,.17,101.3,53.13,119.37,62.61v35.97l-136.88-71.77c-4.3-2.25-6.96-6.66-6.96-11.51v-27.12c0-4.85,2.67-9.26,6.97-11.52l3.33-1.74m148.94,37.21l31.3,16.42-31.3,16.4v-32.83m-15.39,0v32.83l-31.3-16.4,31.3-16.42m-143.85,28.68l143.86,75.44v35.98l-136.89-71.79c-4.29-2.25-6.96-6.66-6.96-11.51v-28.11m303.09,0v28.11c0,4.85-2.67,9.26-6.96,11.51l-136.89,71.79v-35.98l143.86-75.44m-303.09,53.63l143.86,75.44v35.98l-136.89-71.79c-4.29-2.25-6.96-6.66-6.96-11.51v-28.11m303.09,0v28.11c0,4.85-2.67,9.26-6.96,11.51l-136.89,71.79v-35.98l143.86-75.44m-146.85-194.52v42.75l61.52,32.27,40.76,21.36,13.58-7.12c11.49-6.02,11.49-22.47,0-28.49l-13.6-7.13-102.25-53.63h0Zm-9.39,0l-102.25,53.63-13.61,7.13c-11.49,6.02-11.49,22.47,0,28.49l13.58,7.12,40.76-21.36,61.52-32.27v-42.75h0Zm9.39,53.63v42.75l51.13,26.81,40.76-21.36-91.88-48.2h0Zm-9.39,0l-91.88,48.2,40.76,21.36,51.13-26.81v-42.75h0Zm142,15.93c.63,2.12,.96,4.36,.96,6.68,0,1.32-.11,2.64-.31,3.89-1.21,7.49-5.88,13.83-12.31,17.32l-120.96,63.44v42.75l141.28-74.07c5.27-2.76,8.57-8.22,8.57-14.17v-27.12c0-5.95-3.3-11.41-8.57-14.17l-8.65-4.53h0Zm-274.62,0l-8.65,4.53c-5.27,2.76-8.57,8.22-8.57,14.17v27.12c0,5.95,3.3,11.41,8.57,14.17l141.28,74.07v-42.75s-120.62-63.26-120.95-63.44c-6.44-3.49-11.11-9.83-12.31-17.32-.2-1.25-.31-2.57-.31-3.89,0-2.32,.34-4.56,.96-6.68h0Zm142,37.7v42.75l40.76-21.36-40.76-21.38h0Zm-9.39,0l-40.76,21.38,40.76,21.36v-42.75h0Zm159.24,28.68l-149.86,78.58v42.75l141.29-74.09c5.27-2.76,8.57-8.22,8.57-14.17v-33.08h0Zm-309.09,0v33.08c0,5.95,3.3,11.41,8.57,14.17l141.29,74.09v-42.75l-149.86-78.58h0Zm309.09,53.63l-149.86,78.58v42.75l141.29-74.09c5.27-2.76,8.57-8.22,8.57-14.17v-33.08h0Zm-309.09,0v33.08c0,5.95,3.3,11.41,8.57,14.17l141.29,74.09v-42.75l-149.86-78.58h0Z"/>
    <path d="M7.69,347.51l97.86,51.32,13.6,7.13c4.39,2.3,7.01,6.64,7.01,11.59,0,4.96-2.62,9.29-7.01,11.59l-12.19,6.39-39.36-20.63-59.91-31.42v-35.97m-15.39,0v35.97l-59.91,31.42-39.37,20.63-12.19-6.39c-4.39-2.3-7.01-6.63-7.01-11.59,0-4.96,2.62-9.29,7.01-11.59l13.61-7.13L-7.69,347.51m15.39,53.63l82.42,43.24-34.3,17.98-48.13-25.24v-35.97m-15.39,0v35.97l-48.13,25.24-34.3-17.98L-7.69,401.14m148.94,16.42l3.33,1.74c4.3,2.25,6.97,6.66,6.97,11.52v27.12c0,4.85-2.67,9.26-6.96,11.51L7.69,541.22v-35.97l119.38-62.61c7.34-3.98,12.52-11.26,13.85-19.48,.23-1.45,.35-2.92,.35-4.36,0-.41,0-.82-.03-1.23m-282.49,0c-.02,.41-.03,.82-.03,1.23,0,1.45,.12,2.92,.35,4.37,1.32,8.22,6.5,15.5,13.86,19.49,.32,.17,101.3,53.13,119.37,62.61v35.97l-136.88-71.77c-4.3-2.25-6.96-6.66-6.96-11.51v-27.12c0-4.85,2.67-9.26,6.97-11.52l3.33-1.74M7.69,454.77l31.3,16.42-31.3,16.4v-32.83m-15.39,0v32.83l-31.3-16.4,31.3-16.42m-143.85,28.68L-7.69,558.88v35.98l-136.89-71.79c-4.29-2.25-6.96-6.66-6.96-11.51v-28.11m303.09,0v28.11c0,4.85-2.67,9.26-6.96,11.51L7.69,594.86v-35.98l143.86-75.44m-303.09,53.63L-7.69,612.51v35.98l-136.89-71.79c-4.29-2.25-6.96-6.66-6.96-11.51v-28.11m303.09,0v28.11c0,4.85-2.67,9.26-6.96,11.51L7.69,648.49v-35.98l143.86-75.44M4.69,342.55v42.75l61.52,32.27,40.76,21.36,13.58-7.12c11.49-6.02,11.49-22.47,0-28.49l-13.6-7.13L4.69,342.55h0Zm-9.39,0l-102.25,53.63-13.61,7.13c-11.49,6.02-11.49,22.47,0,28.49l13.58,7.12,40.76-21.36L-4.69,385.3v-42.75h0Zm9.39,53.63v42.75l51.13,26.81,40.76-21.36L4.69,396.18h0Zm-9.39,0l-91.88,48.2,40.76,21.36,51.13-26.81v-42.75h0Zm142,15.93c.63,2.12,.96,4.36,.96,6.68,0,1.32-.11,2.64-.31,3.89-1.21,7.49-5.88,13.83-12.31,17.32L4.69,503.44v42.75l141.28-74.07c5.27-2.76,8.57-8.22,8.57-14.17v-27.12c0-5.95-3.3-11.41-8.57-14.17l-8.65-4.53h0Zm-274.62,0l-8.65,4.53c-5.27,2.76-8.57,8.22-8.57,14.17v27.12c0,5.95,3.3,11.41,8.57,14.17L-4.69,546.18v-42.75s-120.62-63.26-120.95-63.44c-6.44-3.49-11.11-9.83-12.31-17.32-.2-1.25-.31-2.57-.31-3.89,0-2.32,.34-4.56,.96-6.68h0ZM4.69,449.81v42.75l40.76-21.36-40.76-21.38h0Zm-9.39,0l-40.76,21.38,40.76,21.36v-42.75h0Zm159.24,28.68L4.69,557.07v42.75l141.29-74.09c5.27-2.76,8.57-8.22,8.57-14.17v-33.08h0Zm-309.09,0v33.08c0,5.95,3.3,11.41,8.57,14.17L-4.69,599.82v-42.75l-149.86-78.58h0Zm309.09,53.63L4.69,610.7v42.75l141.29-74.09c5.27-2.76,8.57-8.22,8.57-14.17v-33.08h0Zm-309.09,0v33.08c0,5.95,3.3,11.41,8.57,14.17L-4.69,653.45v-42.75l-149.86-78.58h0Z"/>
    <path d="M171.19,98.51l97.86,51.32,13.6,7.13c4.39,2.3,7.01,6.64,7.01,11.59,0,4.96-2.62,9.29-7.01,11.59l-12.19,6.39-39.36-20.63-59.91-31.42v-35.97m-15.39,0v35.97l-59.91,31.42-39.37,20.63-12.19-6.39c-4.39-2.3-7.01-6.63-7.01-11.59,0-4.96,2.62-9.29,7.01-11.59l13.61-7.13,97.86-51.32m15.39,53.63l82.42,43.24-34.3,17.98-48.13-25.24v-35.97m-15.39,0v35.97l-48.13,25.24-34.3-17.98,82.42-43.24m148.94,16.42l3.33,1.74c4.3,2.25,6.97,6.66,6.97,11.52v27.12c0,4.85-2.67,9.26-6.96,11.51l-136.88,71.77v-35.97l119.38-62.61c7.34-3.98,12.52-11.26,13.85-19.48,.23-1.45,.35-2.92,.35-4.36,0-.41,0-.82-.03-1.23m-282.49,0c-.02,.41-.03,.82-.03,1.23,0,1.45,.12,2.92,.35,4.37,1.32,8.22,6.5,15.5,13.86,19.49,.32,.17,101.3,53.13,119.37,62.61v35.97L18.92,220.45c-4.3-2.25-6.96-6.66-6.96-11.51v-27.12c0-4.85,2.67-9.26,6.97-11.52l3.33-1.74m148.94,37.21l31.3,16.42-31.3,16.4v-32.83m-15.39,0v32.83l-31.3-16.4,31.3-16.42M11.96,234.45l143.86,75.44v35.98L18.92,274.07c-4.29-2.25-6.96-6.66-6.96-11.51v-28.11m303.09,0v28.11c0,4.85-2.67,9.26-6.96,11.51l-136.89,71.79v-35.98l143.86-75.44M11.96,288.07l143.86,75.44v35.98L18.92,327.7c-4.29-2.25-6.96-6.66-6.96-11.51v-28.11m303.09,0v28.11c0,4.85-2.67,9.26-6.96,11.51l-136.89,71.79v-35.98l143.86-75.44M168.19,93.55v42.75l61.52,32.27,40.76,21.36,13.58-7.12c11.49-6.02,11.49-22.47,0-28.49l-13.6-7.13-102.25-53.63h0Zm-9.39,0l-102.25,53.63-13.61,7.13c-11.49,6.02-11.49,22.47,0,28.49l13.58,7.12,40.76-21.36,61.52-32.27v-42.75h0Zm9.39,53.63v42.75l51.13,26.81,40.76-21.36-91.88-48.2h0Zm-9.39,0l-91.88,48.2,40.76,21.36,51.13-26.81v-42.75h0Zm142,15.93c.63,2.12,.96,4.36,.96,6.68,0,1.32-.11,2.64-.31,3.89-1.21,7.49-5.88,13.83-12.31,17.32l-120.96,63.44v42.75l141.28-74.07c5.27-2.76,8.57-8.22,8.57-14.17v-27.12c0-5.95-3.3-11.41-8.57-14.17l-8.65-4.53h0Zm-274.62,0l-8.65,4.53c-5.27,2.76-8.57,8.22-8.57,14.17v27.12c0,5.95,3.3,11.41,8.57,14.17l141.28,74.07v-42.75s-120.62-63.26-120.95-63.44c-6.44-3.49-11.11-9.83-12.31-17.32-.2-1.25-.31-2.57-.31-3.89,0-2.32,.34-4.56,.96-6.68h0Zm142,37.7v42.75l40.76-21.36-40.76-21.38h0Zm-9.39,0l-40.76,21.38,40.76,21.36v-42.75h0Zm159.24,28.68l-149.86,78.58v42.75l141.29-74.09c5.27-2.76,8.57-8.22,8.57-14.17v-33.08h0Zm-309.09,0v33.08c0,5.95,3.3,11.41,8.57,14.17l141.29,74.09v-42.75L8.96,229.49h0Zm309.09,53.63l-149.86,78.58v42.75l141.29-74.09c5.27-2.76,8.57-8.22,8.57-14.17v-33.08h0Zm-309.09,0v33.08c0,5.95,3.3,11.41,8.57,14.17l141.29,74.09v-42.75L8.96,283.11h0Z"/>
    <path d="M334.69-150.49l97.86,51.32,13.6,7.13c4.39,2.3,7.01,6.64,7.01,11.59,0,4.96-2.62,9.29-7.01,11.59l-12.19,6.39-39.36-20.63-59.91-31.42v-35.97m-15.39,0v35.97l-59.91,31.42-39.37,20.63-12.19-6.39c-4.39-2.3-7.01-6.63-7.01-11.59,0-4.96,2.62-9.29,7.01-11.59l13.61-7.13,97.86-51.32m15.39,53.63l82.42,43.24-34.3,17.98-48.13-25.24v-35.97m-15.39,0V-60.89l-48.13,25.24-34.3-17.98,82.42-43.24m148.94,16.42l3.33,1.74c4.3,2.25,6.97,6.66,6.97,11.52v27.12c0,4.85-2.67,9.26-6.96,11.51L334.69,43.22V7.25l119.38-62.61c7.34-3.98,12.52-11.26,13.85-19.48,.23-1.45,.35-2.92,.35-4.36,0-.41,0-.82-.03-1.23m-282.49,0c-.02,.41-.03,.82-.03,1.23,0,1.45,.12,2.92,.35,4.37,1.32,8.22,6.5,15.5,13.86,19.49,.32,.17,101.3,53.13,119.37,62.61V43.22L182.42-28.55c-4.3-2.25-6.96-6.66-6.96-11.51v-27.12c0-4.85,2.67-9.26,6.97-11.52l3.33-1.74m148.94,37.21l31.3,16.42-31.3,16.4V-43.23m-15.39,0V-10.41l-31.3-16.4,31.3-16.42M175.46-14.55L319.31,60.88v35.98L182.42,25.07c-4.29-2.25-6.96-6.66-6.96-11.51V-14.55m303.09,0V13.56c0,4.85-2.67,9.26-6.96,11.51l-136.89,71.79V60.88L478.54-14.55M175.46,39.07l143.86,75.44v35.98L182.42,78.7c-4.29-2.25-6.96-6.66-6.96-11.51v-28.11m303.09,0v28.11c0,4.85-2.67,9.26-6.96,11.51l-136.89,71.79v-35.98L478.54,39.07m-146.85-194.52v42.75l61.52,32.27,40.76,21.36,13.58-7.12c11.49-6.02,11.49-22.47,0-28.49l-13.6-7.13-102.25-53.63h0Zm-9.39,0l-102.25,53.63-13.61,7.13c-11.49,6.02-11.49,22.47,0,28.49l13.58,7.12,40.76-21.36,61.52-32.27v-42.75h0Zm9.39,53.63V-59.07l51.13,26.81,40.76-21.36-91.88-48.2h0Zm-9.39,0l-91.88,48.2,40.76,21.36,51.13-26.81v-42.75h0Zm142,15.93c.63,2.12,.96,4.36,.96,6.68,0,1.32-.11,2.64-.31,3.89-1.21,7.49-5.88,13.83-12.31,17.32L331.69,5.44V48.18L472.97-25.89c5.27-2.76,8.57-8.22,8.57-14.17v-27.12c0-5.95-3.3-11.41-8.57-14.17l-8.65-4.53h0Zm-274.62,0l-8.65,4.53c-5.27,2.76-8.57,8.22-8.57,14.17v27.12c0,5.95,3.3,11.41,8.57,14.17L322.31,48.18V5.44s-120.62-63.26-120.95-63.44c-6.44-3.49-11.11-9.83-12.31-17.32-.2-1.25-.31-2.57-.31-3.89,0-2.32,.34-4.56,.96-6.68h0Zm142,37.7V-5.45l40.76-21.36-40.76-21.38h0Zm-9.39,0l-40.76,21.38,40.76,21.36V-48.19h0Zm159.24,28.68L331.69,59.07v42.75L472.98,27.73c5.27-2.76,8.57-8.22,8.57-14.17V-19.51h0Zm-309.09,0V13.56c0,5.95,3.3,11.41,8.57,14.17l141.29,74.09V59.07L172.46-19.51h0ZM481.54,34.11l-149.86,78.58v42.75l141.29-74.09c5.27-2.76,8.57-8.22,8.57-14.17V34.11h0Zm-309.09,0v33.08c0,5.95,3.3,11.41,8.57,14.17l141.29,74.09v-42.75L172.46,34.11h0Z"/>
    <path d="M7.69-150.49l97.86,51.32,13.6,7.13c4.39,2.3,7.01,6.64,7.01,11.59,0,4.96-2.62,9.29-7.01,11.59l-12.19,6.39-39.36-20.63L7.69-114.52v-35.97m-15.39,0v35.97l-59.91,31.42-39.37,20.63-12.19-6.39c-4.39-2.3-7.01-6.63-7.01-11.59,0-4.96,2.62-9.29,7.01-11.59l13.61-7.13L-7.69-150.49M7.69-96.86L90.12-53.62l-34.3,17.98L7.69-60.89v-35.97m-15.39,0V-60.89l-48.13,25.24-34.3-17.98L-7.69-96.86m148.94,16.42l3.33,1.74c4.3,2.25,6.97,6.66,6.97,11.52v27.12c0,4.85-2.67,9.26-6.96,11.51L7.69,43.22V7.25L127.08-55.36c7.34-3.98,12.52-11.26,13.85-19.48,.23-1.45,.35-2.92,.35-4.36,0-.41,0-.82-.03-1.23m-282.49,0c-.02,.41-.03,.82-.03,1.23,0,1.45,.12,2.92,.35,4.37,1.32,8.22,6.5,15.5,13.86,19.49,.32,.17,101.3,53.13,119.37,62.61V43.22L-144.58-28.55c-4.3-2.25-6.96-6.66-6.96-11.51v-27.12c0-4.85,2.67-9.26,6.97-11.52l3.33-1.74M7.69-43.23l31.3,16.42L7.69-10.41V-43.23m-15.39,0V-10.41l-31.3-16.4L-7.69-43.23M-151.54-14.55L-7.69,60.88v35.98L-144.58,25.07c-4.29-2.25-6.96-6.66-6.96-11.51V-14.55m303.09,0V13.56c0,4.85-2.67,9.26-6.96,11.51L7.69,96.86V60.88L151.54-14.55M-151.54,39.07L-7.69,114.51v35.98L-144.58,78.7c-4.29-2.25-6.96-6.66-6.96-11.51v-28.11m303.09,0v28.11c0,4.85-2.67,9.26-6.96,11.51L7.69,150.49v-35.98L151.54,39.07M4.69-155.45v42.75l61.52,32.27,40.76,21.36,13.58-7.12c11.49-6.02,11.49-22.47,0-28.49l-13.6-7.13L4.69-155.45h0Zm-9.39,0l-102.25,53.63-13.61,7.13c-11.49,6.02-11.49,22.47,0,28.49l13.58,7.12,40.76-21.36L-4.69-112.7v-42.75h0ZM4.69-101.82V-59.07l51.13,26.81,40.76-21.36L4.69-101.82h0Zm-9.39,0L-96.58-53.62l40.76,21.36L-4.69-59.07v-42.75h0Zm142,15.93c.63,2.12,.96,4.36,.96,6.68,0,1.32-.11,2.64-.31,3.89-1.21,7.49-5.88,13.83-12.31,17.32L4.69,5.44V48.18L145.97-25.89c5.27-2.76,8.57-8.22,8.57-14.17v-27.12c0-5.95-3.3-11.41-8.57-14.17l-8.65-4.53h0Zm-274.62,0l-8.65,4.53c-5.27,2.76-8.57,8.22-8.57,14.17v27.12c0,5.95,3.3,11.41,8.57,14.17L-4.69,48.18V5.44S-125.31-57.82-125.65-58c-6.44-3.49-11.11-9.83-12.31-17.32-.2-1.25-.31-2.57-.31-3.89,0-2.32,.34-4.56,.96-6.68h0ZM4.69-48.19V-5.45L45.45-26.81,4.69-48.19h0Zm-9.39,0L-45.45-26.81-4.69-5.45V-48.19h0ZM154.54-19.51L4.69,59.07v42.75L145.98,27.73c5.27-2.76,8.57-8.22,8.57-14.17V-19.51h0Zm-309.09,0V13.56c0,5.95,3.3,11.41,8.57,14.17L-4.69,101.82V59.07L-154.54-19.51h0ZM154.54,34.11L4.69,112.7v42.75L145.98,81.36c5.27-2.76,8.57-8.22,8.57-14.17V34.11h0Zm-309.09,0v33.08c0,5.95,3.3,11.41,8.57,14.17L-4.69,155.45v-42.75L-154.54,34.11h0Z"/>
  </g>
</svg>
